<svg width="24" height="24" viewBox="0 0 24 24" xmlns="http://www.w3.org/2000/svg">
<path fill-rule="evenodd" clip-rule="evenodd" d="M16 8.76003C15.9674 10.3934 14.6338 11.7004 13 11.7C11.3858 11.6734 10.0821 10.3742 10.05 8.76003V7.63003C10.0499 6.96442 10.3183 6.3269 10.7946 5.86192C11.2709 5.39694 11.9146 5.14386 12.58 5.16003H13.52C14.1769 5.15737 14.8077 5.41643 15.2731 5.87993C15.7385 6.34344 16.0001 6.97321 16 7.63003V8.76003ZM12.55 6.63003C11.9978 6.63003 11.55 7.07775 11.55 7.63003L11.59 8.76003C11.59 9.56084 12.2392 10.21 13.04 10.21C13.8409 10.21 14.49 9.56084 14.49 8.76003V7.63003C14.49 7.07775 14.0423 6.63003 13.49 6.63003H12.55Z" />
<path fill-rule="evenodd" clip-rule="evenodd" d="M23.48 15.3L23.59 16.86C23.7055 17.3483 23.5927 17.8625 23.2833 18.2575C22.974 18.6525 22.5017 18.8853 22 18.89H17.51C17.1183 19.3076 16.5725 19.5461 16 19.55H9.99997C9.39856 19.5581 8.82282 19.3067 8.41997 18.86C8.32693 18.8704 8.23302 18.8704 8.13997 18.86H3.54997C3.06195 18.8416 2.60715 18.608 2.30799 18.2219C2.00882 17.8359 1.89603 17.3372 1.99997 16.86L2.14997 15.3C2.29589 14.5557 2.94158 14.0141 3.69997 14H7.99997C8.17946 13.9901 8.35923 14.0138 8.52997 14.07C8.91363 13.5908 9.49612 13.3143 10.11 13.32H15.89C16.4679 13.3179 17.0185 13.5658 17.4 14C17.4696 13.9902 17.5403 13.9902 17.61 14H21.93C22.6884 14.0141 23.3341 14.5557 23.48 15.3ZM17.55 17.36H22.08C22.1106 17.3011 22.1142 17.2318 22.09 17.17V16.97L21.99 15.55L21.93 15.47H17.64H17.4C16.9772 15.4716 16.5737 15.2934 16.29 14.98C16.1908 14.8614 16.0447 14.792 15.89 14.79H10.11C9.94245 14.7922 9.78468 14.8692 9.67998 15C9.39452 15.3389 8.97305 15.5331 8.52998 15.53C8.34855 15.5309 8.16863 15.4969 7.99998 15.43H3.74998C3.68998 15.43 3.68998 15.45 3.68998 15.51L3.58998 16.93V17.13C3.5626 17.1904 3.5626 17.2597 3.58998 17.32H8.17998C8.28642 17.3103 8.39354 17.3103 8.49998 17.32C8.90637 17.3276 9.29094 17.5054 9.55998 17.81C9.67031 17.9392 9.8302 18.0155 9.99998 18.02H16.04C16.2101 18.0167 16.3704 17.9402 16.48 17.81C16.7612 17.5216 17.1471 17.3592 17.55 17.36Z" />
<path fill-rule="evenodd" clip-rule="evenodd" d="M21.9701 10.2601C21.9701 11.4751 20.9851 12.4601 19.7701 12.4601C19.1849 12.4627 18.6227 12.2321 18.208 11.8193C17.7932 11.4064 17.5601 10.8453 17.5601 10.2601V9.42007C17.5601 8.92942 17.755 8.45886 18.1019 8.11192C18.4489 7.76498 18.9194 7.57007 19.4101 7.57007H20.1201C21.1418 7.57007 21.9701 8.39834 21.9701 9.42007V10.2601ZM19.1626 9.21258C19.0969 9.27822 19.0601 9.36724 19.0601 9.46007V10.3001C19.1027 10.6571 19.4055 10.926 19.7651 10.926C20.1246 10.926 20.4275 10.6571 20.4701 10.3001V9.46007C20.4701 9.26677 20.3134 9.11007 20.1201 9.11007H19.4101C19.3172 9.11007 19.2282 9.14694 19.1626 9.21258Z" />
<path fill-rule="evenodd" clip-rule="evenodd" d="M7.42201 11.8193C7.00727 12.2321 6.44512 12.4627 5.85991 12.4601C5.27644 12.4601 4.71686 12.2283 4.30428 11.8157C3.8917 11.4031 3.65991 10.8435 3.65991 10.2601V9.42007C3.65991 8.39834 4.48819 7.57007 5.50991 7.57007H6.21991C7.24164 7.57007 8.06991 8.39834 8.06991 9.42007V10.2601C8.06992 10.8453 7.83676 11.4064 7.42201 11.8193ZM5.50991 9.11007C5.31661 9.11007 5.15991 9.26677 5.15991 9.46007V10.3001C5.20251 10.6571 5.50532 10.926 5.86491 10.926C6.2245 10.926 6.52731 10.6571 6.56991 10.3001V9.46007C6.56991 9.26677 6.41321 9.11007 6.21991 9.11007H5.50991Z" />
</svg>
